<svg width="144" height="52" viewBox="0 0 144 52" fill="none" xmlns="http://www.w3.org/2000/svg">
<path d="M13.32 38.0343L8.19 37.9143H6.21C3.95 37.9143 2.28 37.9943 1.2 38.1543C1.1 38.0343 1.05 37.8643 1.05 37.6443L1.08 37.4043C2.12 37.1643 2.8 36.7943 3.12 36.2943C3.38 35.8943 3.58 35.1343 3.72 34.0143C3.88 32.8743 3.96 30.6843 3.96 27.4443V21.3843C3.96 18.6443 3.83 17.2643 3.57 17.2443C3.19 17.1843 2.59 17.1543 1.77 17.1543C1.71 17.0143 1.68 16.8543 1.68 16.6743C1.68 16.4943 1.71 16.3443 1.77 16.2243L4.65 16.3143C6.49 16.3143 7.91 16.2343 8.91 16.0743C9.03 16.2343 9.09 16.3943 9.09 16.5543L9.03 16.8243C8.21 17.0443 7.67 17.3243 7.41 17.6643C7.15 17.9843 6.99 18.4543 6.93 19.0743C6.69 21.5343 6.57 24.2043 6.57 27.0843V32.7543C6.57 34.6343 6.63 35.9543 6.75 36.7143C7.47 36.7943 8.31 36.8343 9.27 36.8343C11.33 36.8343 13.37 36.5643 15.39 36.0243C15.71 35.5643 16 34.9543 16.26 34.1943C16.54 33.4143 16.71 32.9443 16.77 32.7843C16.87 32.7643 17.02 32.7543 17.22 32.7543C17.42 32.7543 17.64 32.8443 17.88 33.0243C17.8 33.4443 17.67 34.3243 17.49 35.6643C17.31 37.0043 17.2 37.6943 17.16 37.7343C16.9 37.9343 15.62 38.0343 13.32 38.0343ZM26.8711 36.3543C28.5111 36.3543 29.9611 35.9143 31.2211 35.0343C31.5011 35.1343 31.6611 35.3443 31.7011 35.6643L28.4611 37.9443C27.9811 38.3243 26.9111 38.5143 25.2511 38.5143C23.5911 38.5143 22.1811 37.7743 21.0211 36.2943C19.8611 34.7943 19.2811 32.9043 19.2811 30.6243C19.2811 28.3443 19.9111 26.5443 21.1711 25.2243C22.4311 23.9043 23.9311 23.0443 25.6711 22.6443C27.1911 22.6443 28.5311 23.1543 29.6911 24.1743C30.3911 24.7743 30.8811 25.5543 31.1611 26.5143C31.2211 26.7543 31.5011 26.8843 32.0011 26.9043C32.1211 27.0443 32.1811 27.1943 32.1811 27.3543C32.1811 27.4943 32.1611 27.6443 32.1211 27.8043C28.6011 28.6243 25.1411 29.1943 21.7411 29.5143C21.7411 32.0743 22.4511 33.9943 23.8711 35.2743C24.6711 35.9943 25.6711 36.3543 26.8711 36.3543ZM28.7611 27.2043C28.8611 27.1443 28.9111 27.0743 28.9111 26.9943C28.9111 26.8943 28.7811 26.6143 28.5211 26.1543C28.2811 25.6743 27.8511 25.1743 27.2311 24.6543C26.6111 24.1143 25.9611 23.8443 25.2811 23.8443C24.6011 23.8443 24.1011 23.9443 23.7811 24.1443C22.6611 24.9043 22.0211 26.2843 21.8611 28.2843C22.9411 28.2843 24.1711 28.1743 25.5511 27.9543C26.9311 27.7143 28.0011 27.4643 28.7611 27.2043ZM29.0311 17.0043L23.8711 21.5043C23.7111 21.5043 23.5711 21.4643 23.4511 21.3843C23.3311 21.2843 23.2411 21.1543 23.1811 20.9943C24.7411 19.0543 26.1311 17.2143 27.3511 15.4743C28.1511 15.7943 28.7111 16.3043 29.0311 17.0043Z" fill="#EFE3C8" fill-opacity="0.5"/>
<path d="M57.648 41.168L50.466 41H47.694C44.53 41 42.192 41.112 40.68 41.336C40.54 41.168 40.47 40.93 40.47 40.622L40.512 40.286C41.968 39.95 42.92 39.432 43.368 38.732C43.732 38.172 44.012 37.108 44.208 35.54C44.432 33.944 44.544 30.878 44.544 26.342V17.858C44.544 14.022 44.362 12.09 43.998 12.062C43.466 11.978 42.626 11.936 41.478 11.936C41.394 11.74 41.352 11.516 41.352 11.264C41.352 11.012 41.394 10.802 41.478 10.634L45.51 10.76C48.086 10.76 50.074 10.648 51.474 10.424C51.642 10.648 51.726 10.872 51.726 11.096L51.642 11.474C50.494 11.782 49.738 12.174 49.374 12.65C49.01 13.098 48.786 13.756 48.702 14.624C48.366 18.068 48.198 21.806 48.198 25.838V33.776C48.198 36.408 48.282 38.256 48.45 39.32C49.458 39.432 50.634 39.488 51.978 39.488C54.862 39.488 57.718 39.11 60.546 38.354C60.994 37.71 61.4 36.856 61.764 35.792C62.156 34.7 62.394 34.042 62.478 33.818C62.618 33.79 62.828 33.776 63.108 33.776C63.388 33.776 63.696 33.902 64.032 34.154C63.92 34.742 63.738 35.974 63.486 37.85C63.234 39.726 63.08 40.692 63.024 40.748C62.66 41.028 60.868 41.168 57.648 41.168ZM75.3175 41.126L71.5375 41C69.5775 41 67.7295 41.112 65.9935 41.336C65.8255 41.112 65.7415 40.874 65.7415 40.622L65.8255 40.286C67.0295 40.006 67.8415 39.572 68.2615 38.984C68.5695 38.536 68.8075 38.004 68.9755 37.388C69.1435 36.744 69.2275 34.924 69.2275 31.928V27.896C69.2275 26.16 69.1435 24.956 68.9755 24.284C68.8355 23.612 68.6115 23.164 68.3035 22.94C67.9955 22.716 67.5895 22.576 67.0855 22.52L65.5315 22.394C65.4475 22.282 65.4055 22.1 65.4055 21.848L65.5315 21.302C66.9875 20.994 68.1635 20.686 69.0595 20.378C69.9835 20.042 71.0615 19.566 72.2935 18.95C72.6015 18.95 72.8115 19.118 72.9235 19.454C72.5875 21.358 72.4195 25.894 72.4195 33.062C72.4195 34.35 72.4615 35.778 72.5455 37.346C72.6575 38.886 72.7975 39.67 72.9655 39.698C73.3855 39.782 74.1695 39.824 75.3175 39.824C75.4015 40.02 75.4435 40.244 75.4435 40.496C75.4435 40.748 75.4015 40.958 75.3175 41.126ZM71.3695 14.162C70.3615 13.462 69.6475 12.538 69.2275 11.39C69.5635 10.998 70.0115 10.592 70.5715 10.172C71.1595 9.724 71.6635 9.416 72.0835 9.248C73.1475 10.032 73.8335 10.97 74.1415 12.062C73.3575 13.07 72.4335 13.77 71.3695 14.162ZM84.8676 37.304C84.8676 37.976 85.6516 38.606 87.2196 39.194C88.7876 39.754 89.8796 40.034 90.4956 40.034C92.0916 40.034 93.5476 39.32 94.8636 37.892C96.2076 36.464 96.8796 34.798 96.8796 32.894C96.8796 29.982 96.2216 27.532 94.9056 25.544C93.5896 23.556 92.1336 22.562 90.5376 22.562C88.9696 22.562 87.0796 23.444 84.8676 25.208V37.304ZM100.408 31.298C100.408 33.174 99.9456 34.84 99.0216 36.296C98.1256 37.752 97.0056 38.858 95.6616 39.614C93.0576 41.098 90.7056 41.84 88.6056 41.84C87.8776 41.84 85.9596 41.504 82.8516 40.832L81.2136 41.84C80.9336 41.84 80.7236 41.714 80.5836 41.462C81.0036 39.922 81.2696 38.102 81.3816 36.002C81.4936 33.874 81.5496 29.394 81.5496 22.562V12.65C81.5496 10.802 81.4096 9.514 81.1296 8.786C80.8496 8.03 80.2616 7.582 79.3656 7.442L77.8956 7.274C77.8396 7.05 77.8116 6.882 77.8116 6.77L77.8956 6.224C79.4076 5.944 80.5556 5.678 81.3396 5.426C82.1236 5.146 83.3696 4.474 85.0776 3.41C85.3296 3.41 85.5396 3.55 85.7076 3.83C85.1476 7.106 84.8676 13.63 84.8676 23.402C88.2836 21.414 90.8176 20.154 92.4696 19.622C94.5696 20.07 96.4176 21.358 98.0136 23.486C99.6096 25.586 100.408 28.19 100.408 31.298ZM104.896 22.142L103.258 22.184C103.118 22.044 103.048 21.834 103.048 21.554L103.132 21.05C105.036 20.798 106.59 20.406 107.794 19.874C108.186 19.706 108.424 19.622 108.508 19.622C108.816 19.622 109.166 20.182 109.558 21.302C109.95 22.394 110.188 23.486 110.272 24.578C112.372 22.394 114.276 20.742 115.984 19.622C117.104 19.622 118.028 19.958 118.756 20.63C119.484 21.274 119.848 22.086 119.848 23.066C119.848 24.186 118.854 24.746 116.866 24.746C116.446 23.262 115.732 22.52 114.724 22.52C114.052 22.52 112.652 23.682 110.524 26.006C110.356 28.134 110.272 31.522 110.272 36.17C110.272 38.494 110.454 39.67 110.818 39.698C111.462 39.782 112.596 39.824 114.22 39.824C114.304 40.02 114.346 40.244 114.346 40.496C114.346 40.748 114.304 40.958 114.22 41.126L109.516 41C107.22 41 105.19 41.112 103.426 41.336C103.286 41.168 103.216 40.93 103.216 40.622L103.258 40.286C104.742 40.006 105.694 39.572 106.114 38.984C106.422 38.536 106.646 37.822 106.786 36.842C106.926 35.834 106.996 33.874 106.996 30.962C106.996 28.05 106.982 26.44 106.954 26.132C106.954 25.824 106.94 25.418 106.912 24.914C106.884 24.41 106.828 24.032 106.744 23.78C106.66 23.528 106.534 23.248 106.366 22.94C106.086 22.408 105.596 22.142 104.896 22.142ZM142.079 30.752C142.079 36.968 138.467 40.664 131.243 41.84C128.275 41.84 125.769 40.79 123.725 38.69C121.709 36.562 120.701 33.916 120.701 30.752C120.701 24.48 124.327 20.77 131.579 19.622C134.519 19.622 136.997 20.7 139.013 22.856C141.057 25.012 142.079 27.644 142.079 30.752ZM132.167 40.034C136.199 40.034 138.215 37.458 138.215 32.306C138.215 29.394 137.543 26.846 136.199 24.662C134.855 22.478 133.077 21.386 130.865 21.386C128.653 21.386 127.043 22.1 126.035 23.528C125.055 24.928 124.565 26.944 124.565 29.576C124.565 32.18 125.251 34.574 126.623 36.758C127.995 38.942 129.843 40.034 132.167 40.034Z" fill="#EFE3C8"/>
</svg>
