<svg width="20" height="17" viewBox="0 0 20 17" fill="none" xmlns="http://www.w3.org/2000/svg">
<path d="M7.9 1.89221C6.48867 1.21838 4.51602 0.888306 1.875 0.876587C1.62593 0.873203 1.38174 0.945832 1.175 1.08479C1.00531 1.19949 0.866403 1.35413 0.770498 1.53511C0.674593 1.71609 0.62463 1.91786 0.625002 2.12268V13.2985C0.625002 14.0539 1.1625 14.6239 1.875 14.6239C4.65117 14.6239 7.43594 14.8832 9.10391 16.4598C9.12673 16.4815 9.15541 16.4959 9.18639 16.5014C9.21737 16.5069 9.24928 16.5032 9.27816 16.4907C9.30704 16.4782 9.33162 16.4576 9.34883 16.4312C9.36605 16.4049 9.37515 16.3741 9.375 16.3426V3.17424C9.37507 3.0854 9.35606 2.99757 9.31927 2.9167C9.28247 2.83584 9.22875 2.76381 9.16172 2.70549C8.77965 2.37887 8.35525 2.1053 7.9 1.89221ZM18.825 1.08362C18.6182 0.945006 18.374 0.872782 18.125 0.876587C15.484 0.888306 13.5113 1.21682 12.1 1.89221C11.6448 2.10492 11.2203 2.37794 10.8379 2.70393C10.771 2.76235 10.7174 2.83441 10.6807 2.91526C10.644 2.99611 10.625 3.08388 10.625 3.17268V16.3418C10.625 16.3721 10.6339 16.4016 10.6506 16.4268C10.6673 16.452 10.6911 16.4717 10.719 16.4834C10.7469 16.4951 10.7776 16.4984 10.8073 16.4927C10.837 16.4871 10.8643 16.4727 10.8859 16.4516C11.8887 15.4555 13.6484 14.6227 18.1266 14.6231C18.4581 14.6231 18.776 14.4914 19.0104 14.257C19.2449 14.0225 19.3766 13.7046 19.3766 13.3731V2.12307C19.377 1.91785 19.3269 1.71567 19.2307 1.53438C19.1346 1.3531 18.9952 1.19829 18.825 1.08362Z" fill="#4A2B29"/>
</svg>
