<svg width="24" height="24" viewBox="0 0 24 24" fill="none" xmlns="http://www.w3.org/2000/svg">
<g clip-path="url(#clip0_302_365)">
<path fill-rule="evenodd" clip-rule="evenodd" d="M5.73303 5.04299C6.95003 3.83299 8.95403 4.04799 9.97303 5.40999L11.235 7.09399C12.065 8.20199 11.991 9.74999 11.006 10.729L10.768 10.967C10.7412 11.0669 10.7384 11.1718 10.76 11.273C10.823 11.681 11.164 12.545 12.592 13.965C14.02 15.385 14.89 15.725 15.304 15.789C15.4082 15.8112 15.5162 15.8081 15.619 15.78L16.027 15.374C16.903 14.504 18.247 14.341 19.331 14.93L21.241 15.97C22.878 16.858 23.291 19.082 21.951 20.415L20.53 21.827C20.082 22.272 19.48 22.643 18.746 22.712C16.936 22.881 12.719 22.665 8.28603 18.258C4.14903 14.144 3.35503 10.556 3.25403 8.78799C3.20403 7.89399 3.62603 7.13799 4.16403 6.60399L5.73303 5.04299ZM8.77303 6.30899C8.26603 5.63199 7.32203 5.57799 6.79003 6.10699L5.22003 7.66699C4.89003 7.99499 4.73203 8.35699 4.75203 8.70299C4.83203 10.108 5.47203 13.345 9.34403 17.195C13.406 21.233 17.157 21.354 18.607 21.218C18.903 21.191 19.197 21.037 19.472 20.764L20.892 19.351C21.47 18.777 21.343 17.731 20.525 17.287L18.615 16.248C18.087 15.962 17.469 16.056 17.085 16.438L16.63 16.891L16.1 16.359C16.63 16.891 16.629 16.892 16.628 16.892L16.627 16.894L16.624 16.897L16.617 16.903L16.602 16.917C16.5595 16.9558 16.514 16.9912 16.466 17.023C16.386 17.076 16.28 17.135 16.147 17.184C15.877 17.285 15.519 17.339 15.077 17.271C14.21 17.138 13.061 16.547 11.534 15.029C10.008 13.511 9.41203 12.369 9.27803 11.503C9.20903 11.061 9.26403 10.703 9.36603 10.433C9.42259 10.2813 9.50293 10.1395 9.60403 10.013L9.63603 9.97799L9.65003 9.96299L9.65603 9.95699L9.65903 9.95399L9.66103 9.95199L9.94903 9.66599C10.377 9.23899 10.437 8.53199 10.034 7.99299L8.77303 6.30899Z" fill="#EFE3C8"/>
</g>
<defs>
<clipPath id="clip0_302_365">
<rect width="24" height="24" fill="white"/>
</clipPath>
</defs>
</svg>
