<svg width="33" height="32" viewBox="0 0 33 32" fill="none" xmlns="http://www.w3.org/2000/svg">
<path d="M8.16375 24.6667H12.1824V16.6667H20.2198V24.6667H24.2385V12.6667L16.2011 6.66667L8.16375 12.6667V24.6667ZM8.16375 27.3333C7.42699 27.3333 6.7965 27.0724 6.27228 26.5507C5.74717 26.028 5.48462 25.4 5.48462 24.6667V12.6667C5.48462 12.2444 5.57973 11.8444 5.76995 11.4667C5.95927 11.0889 6.22138 10.7778 6.55627 10.5333L14.5937 4.53333C14.8392 4.35556 15.096 4.22222 15.3639 4.13333C15.6318 4.04444 15.9109 4 16.2011 4C16.4914 4 16.7704 4.04444 17.0384 4.13333C17.3063 4.22222 17.563 4.35556 17.8086 4.53333L25.846 10.5333C26.1809 10.7778 26.4434 11.0889 26.6337 11.4667C26.823 11.8444 26.9176 12.2444 26.9176 12.6667V24.6667C26.9176 25.4 26.6555 26.028 26.1313 26.5507C25.6062 27.0724 24.9753 27.3333 24.2385 27.3333H17.5407V19.3333H14.8616V27.3333H8.16375Z" fill="#003441"/>
</svg>
