<svg width="24" height="24" viewBox="0 0 24 24" fill="none" xmlns="http://www.w3.org/2000/svg">
<g clip-path="url(#clip0_302_362)">
<path d="M13.078 2C13.372 2 13.635 2.183 13.734 2.457L14.44 4.414C14.693 4.477 14.91 4.54 15.094 4.606C15.295 4.678 15.554 4.787 15.874 4.936L17.518 4.066C17.6522 3.99491 17.8058 3.96925 17.9558 3.99287C18.1058 4.01649 18.2442 4.08811 18.35 4.197L19.796 5.692C19.988 5.891 20.042 6.182 19.934 6.436L19.163 8.243C19.291 8.478 19.393 8.679 19.471 8.847C19.555 9.03 19.659 9.282 19.783 9.607L21.58 10.377C21.85 10.492 22.017 10.762 21.999 11.051L21.867 13.126C21.858 13.2608 21.8096 13.39 21.7278 13.4975C21.646 13.6051 21.5345 13.6863 21.407 13.731L19.705 14.336C19.656 14.571 19.605 14.772 19.551 14.942C19.4639 15.2045 19.3645 15.4628 19.253 15.716L20.108 17.606C20.1683 17.7388 20.1846 17.8874 20.1544 18.0301C20.1241 18.1728 20.049 18.3021 19.94 18.399L18.314 19.851C18.2069 19.9462 18.0733 20.0064 17.931 20.0236C17.7888 20.0408 17.6447 20.014 17.518 19.947L15.842 19.059C15.5798 19.1978 15.3093 19.3204 15.032 19.426L14.3 19.7L13.65 21.5C13.6018 21.6318 13.5149 21.746 13.4007 21.8276C13.2865 21.9091 13.1503 21.9542 13.01 21.957L11.11 22C10.966 22.0038 10.8243 21.9628 10.7045 21.8828C10.5847 21.8027 10.4926 21.6875 10.441 21.553L9.675 19.526C9.41365 19.4367 9.15488 19.34 8.899 19.236C8.68972 19.1454 8.4836 19.0477 8.281 18.943L6.381 19.755C6.25581 19.8084 6.11779 19.8243 5.98374 19.8007C5.8497 19.7771 5.72541 19.715 5.626 19.622L4.22 18.303C4.11532 18.2052 4.04403 18.077 4.01622 17.9365C3.9884 17.796 4.00547 17.6503 4.065 17.52L4.882 15.74C4.77334 15.5292 4.67261 15.3144 4.58 15.096C4.4719 14.8287 4.37186 14.5583 4.28 14.285L2.49 13.74C2.3445 13.696 2.2176 13.6052 2.12899 13.4817C2.04039 13.3582 1.99504 13.2089 2 13.057L2.07 11.136C2.07498 11.0107 2.11414 10.8891 2.18323 10.7844C2.25232 10.6797 2.34872 10.5959 2.462 10.542L4.34 9.64C4.427 9.321 4.503 9.073 4.57 8.892C4.66434 8.65025 4.76911 8.41269 4.884 8.18L4.07 6.46C4.00823 6.32938 3.98947 6.18254 4.01642 6.04059C4.04337 5.89864 4.11465 5.76889 4.22 5.67L5.624 4.344C5.72242 4.25117 5.84557 4.18876 5.97863 4.16428C6.11169 4.1398 6.24898 4.15429 6.374 4.206L8.272 4.99C8.482 4.85 8.672 4.737 8.844 4.646C9.049 4.537 9.323 4.423 9.668 4.3L10.328 2.459C10.3768 2.32427 10.466 2.20788 10.5834 2.12573C10.7008 2.04358 10.8407 1.99967 10.984 2H13.078ZM12.588 3.377H11.475L10.87 5.071C10.8344 5.16978 10.7769 5.25918 10.7017 5.33246C10.6265 5.40574 10.5357 5.46097 10.436 5.494C10 5.639 9.685 5.764 9.501 5.861C9.306 5.964 9.057 6.121 8.761 6.331C8.66412 6.39899 8.55164 6.44142 8.434 6.45436C8.31635 6.46729 8.19734 6.45032 8.088 6.405L6.258 5.65L5.545 6.324L6.288 7.894C6.33248 7.98741 6.35506 8.08974 6.35402 8.1932C6.35298 8.29665 6.32835 8.39851 6.282 8.491C6.082 8.892 5.947 9.188 5.879 9.37C5.77472 9.67297 5.68463 9.98064 5.609 10.292C5.58388 10.3895 5.53774 10.4802 5.47382 10.558C5.40991 10.6357 5.32976 10.6985 5.239 10.742L3.449 11.601L3.413 12.581L5.033 13.073C5.248 13.138 5.418 13.303 5.489 13.515C5.649 13.995 5.777 14.349 5.869 14.571C5.9909 14.8527 6.12571 15.1287 6.273 15.398C6.32283 15.4907 6.35048 15.5936 6.35378 15.6988C6.35708 15.8039 6.33593 15.9084 6.292 16.004L5.541 17.642L6.252 18.31L8.034 17.548C8.12999 17.507 8.23391 17.4879 8.33821 17.492C8.44251 17.4962 8.54458 17.5235 8.637 17.572C9.002 17.764 9.274 17.897 9.446 17.97C9.621 18.043 9.956 18.165 10.442 18.331C10.5385 18.3639 10.6265 18.4178 10.6998 18.4886C10.7731 18.5595 10.8298 18.6457 10.866 18.741L11.574 20.612L12.5 20.592L13.097 18.938C13.1311 18.8436 13.1854 18.7578 13.256 18.6865C13.3267 18.6152 13.412 18.5601 13.506 18.525L14.543 18.137C14.805 18.04 15.123 17.887 15.494 17.677C15.5967 17.6193 15.7122 17.5884 15.83 17.587C15.9477 17.5856 16.064 17.6138 16.168 17.669L17.745 18.504L18.632 17.713L17.856 16C17.8161 15.9121 17.7954 15.8167 17.7953 15.7201C17.7951 15.6236 17.8155 15.5281 17.855 15.44C18.037 15.033 18.16 14.726 18.222 14.53C18.283 14.338 18.346 14.061 18.407 13.705C18.428 13.5841 18.4808 13.4709 18.5601 13.3772C18.6394 13.2836 18.7422 13.2127 18.858 13.172L20.506 12.587L20.578 11.447L18.958 10.753C18.8718 10.7163 18.7939 10.6624 18.7291 10.5947C18.6642 10.527 18.6139 10.4468 18.581 10.359C18.4655 10.0402 18.3394 9.7254 18.203 9.415C18.0739 9.14473 17.9337 8.87985 17.783 8.621C17.7308 8.52955 17.7004 8.42725 17.6944 8.32211C17.6883 8.21697 17.7067 8.11186 17.748 8.015L18.473 6.315L17.709 5.525L16.221 6.313C16.1239 6.36452 16.016 6.39254 15.906 6.3948C15.7961 6.39705 15.6872 6.37349 15.588 6.326C15.2722 6.16897 14.9491 6.02681 14.62 5.9C14.3393 5.80575 14.0531 5.72894 13.763 5.67C13.6479 5.64559 13.5409 5.59231 13.452 5.51517C13.3631 5.43802 13.2953 5.33955 13.255 5.229L12.587 3.376L12.588 3.377ZM12.024 7.641C14.459 7.641 16.434 9.594 16.434 12.002C16.434 14.41 14.459 16.362 12.024 16.362C9.588 16.362 7.614 14.41 7.614 12.002C7.614 9.594 9.588 7.642 12.024 7.642V7.641ZM12.024 9.019C10.357 9.019 9.006 10.354 9.006 12.002C9.006 13.65 10.357 14.986 12.024 14.986C13.69 14.986 15.041 13.65 15.041 12.002C15.041 10.354 13.691 9.019 12.024 9.019Z" fill="#EFE3C8"/>
</g>
<defs>
<clipPath id="clip0_302_362">
<rect width="20" height="20" fill="white" transform="translate(2 2)"/>
</clipPath>
</defs>
</svg>
